<svg xmlns="http://www.w3.org/2000/svg" width="157.865" height="37.567" viewBox="0 0 157.865 37.567">
  <path id="EMCERCE" d="M7.2,8.938H28.305v7.345H15.726v6.163h8.189v7.26H15.726V37.64H28.643v7.345H7.2Zm58,0H86.386v7.345H73.807v6.163H82v7.26H73.807V37.64H86.724v7.345H65.2Zm78.342,0h21.189v7.345H152.065v6.163h8.189v7.26h-8.189V37.64h13v7.345H143.538ZM102.679,24.555H98.627v-8.78h3.8s3.039.169,3.039,4.221c0,4.137-2.786,4.559-2.786,4.559m6.5,5.15s4.728-1.688,4.728-10.3c0-10.468-10.637-10.468-10.637-10.468h-13V45.069h8.442V31.393h2.195l4.305,13.592h9.117l-5.15-15.28Zm15.871-1.351c0,7.682,1.52,10.046,3.968,10.046,2.195,0,2.7-2.533,2.7-2.533l.929-3.377,7.936,2.7s-1.266,10.637-11.819,10.637c-13.423.084-12.832-17.475-12.832-17.475V26.159s-.507-17.559,13-17.559c10.975,0,11.65,11.312,11.65,11.312l-8.442,2.279-.675-3.377s-.675-2.786-2.786-2.786c-2.448,0-3.714,3.377-3.714,10.13v2.195ZM32.1,8.938h7.682L46.54,28.692,53.293,8.938h7.851V45.069H53.293V27.257L46.54,46.167l-6.754-18.91V45.069H32.1Z" transform="translate(-7.2 -8.6)" fill="#000"/>
</svg>
