<svg xmlns="http://www.w3.org/2000/svg" width="298.42" height="40" viewBox="0 0 298.42 40">
  <g id="boston-globe" transform="translate(-8.356 89.085)">
    <path id="Path_72" data-name="Path 72" d="M38.441-87.518c-1.625,1.422-1.777,1.473-2.285.66-.355-.66-.508,3.4-.559,13.965v14.879l-2.387,1.066a19.578,19.578,0,0,1-4.824,1.32l-2.438.254v-25.7l1.473.3c2.539.508,3.555-.1,5.18-3.25,1.828-3.606,1.828-3.809.152-2.133-1.27,1.27-1.473,1.27-5.434.965-2.285-.152-6.5-.457-9.344-.66l-5.18-.3-1.828,1.828C9.6-82.948,9.191-82.135,9.191-80.764c0,2.082.406,3.4,1.066,3.4.254,0,.152-.609-.152-1.32-.559-1.168-.508-1.473.559-2.285,1.27-1.016,3.352-1.168,7.922-.508l2.539.355-1.777.914c-4.824,2.539-8.684,5.535-9.8,7.567C7.87-69.44,7.972-63.8,9.8-60.3a15.464,15.464,0,0,0,12.95,8.227c3.1.254,3.352.152,7.262-2.133,2.234-1.27,4.215-2.336,4.367-2.336a11.914,11.914,0,0,1,2.59,2.082l2.285,2.082L40.727-53.8c1.727-1.676,1.828-2.285.457-3.5-.914-.813-1.016-1.574-1.016-8.176,0-7.211,0-7.262,1.32-8.278,1.625-1.27,2.387-1.32,3.453-.254.66.66.813,2.234.813,9.547,0,8.074.1,8.887,1.016,10.106,1.727,2.184,2.742,2.133,5.738-.1a17.541,17.541,0,0,1,3.1-2.082,20.723,20.723,0,0,1,3.352,2.031,24.384,24.384,0,0,0,3.3,2.031c.559,0,7.414-6.246,7.16-6.5-.152-.1-.965.355-1.828,1.117-1.98,1.625-3.4,1.676-5.637.152-1.574-1.066-1.727-1.422-1.879-4.012l-.152-2.844,4.824-3.758,4.875-3.707-3.25-3.25-3.25-3.25-3.859,3-3.859,3v7.465c0,7.11-.051,7.516-1.117,8.227-1.523,1.066-2.793,1.016-3.453-.152-.3-.609-.508-4.672-.508-9.7v-8.735L48.852-76.9a5.087,5.087,0,0,0-2.234-1.473,11.969,11.969,0,0,0-3.606,2.336l-2.844,2.285v-6.5c0-5.078.152-6.754.813-7.668C42.2-89.651,40.625-89.4,38.441-87.518Zm-13,19.348v12.746l-1.625-.355c-1.828-.406-6.5-2.742-6.5-3.25a8,8,0,0,1,1.828-2.031,11.016,11.016,0,0,0,2.285-2.945,57.577,57.577,0,0,0,.457-9.09v-7.82h3.555Zm-8.125,6.754c-.66,1.828-1.27,1.676-2.742-.863-2.133-3.707-2.641-9.75-1.016-12.7a10.124,10.124,0,0,1,2.234-2.133l1.777-1.32.152,7.82C17.773-66.24,17.621-62.178,17.316-61.416ZM63.172-72.385l2.438,2.438-2.184,1.727c-1.219.914-2.488,1.93-2.793,2.184-.508.355-.66-.508-.66-4.164,0-2.539.2-4.621.406-4.621A15.562,15.562,0,0,1,63.172-72.385Z" transform="translate(0 0)" fill="#000"/>
    <path id="Path_73" data-name="Path 73" d="M170.344-85.177c-4.113,2.793-8.633,6.551-9.293,7.668-.355.609-.711,3.91-.863,8.024-.254,6.348-.356,7.008-1.422,8.176a6.11,6.11,0,0,1-3.3,1.574C151.4-59.074,148-55.723,148-52.32c0,1.422,1.473,4.824,1.879,4.367.2-.152.051-.609-.254-.914-.965-.965-.762-4.317.406-5.485,2.438-2.438,7.11-2.031,13.254,1.168,2.488,1.27,4.621,2.133,4.774,1.879.457-.762,5.535-3.859,8.125-4.926l2.539-1.066.254-5.231.254-5.18-2.641-1.676c-1.473-.965-2.691-1.879-2.641-2.082a7.128,7.128,0,0,1,2.387-1.93c1.473-.965,2.438-1.98,2.539-2.691s-.914-2.742-3-5.84c-1.727-2.539-3.149-4.723-3.2-4.774C172.629-86.7,171.614-86.04,170.344-85.177Zm2.133,7.567c1.117,1.879,1.93,3.758,1.777,4.164-.3.762-4.875,4.317-5.535,4.367-.2,0-.457-1.879-.559-4.215-.051-2.285-.2.559-.254,6.348-.051,5.84-.254,10.563-.457,10.563a3.442,3.442,0,0,1-1.371-.762,13.549,13.549,0,0,0-3.555-1.523c-1.422-.457-2.895-.965-3.3-1.066-.406-.152.152-.863,1.676-2.031,3.4-2.59,3.859-3.758,3.859-10.309,0-6.094.406-7.719,2.438-9.852l1.371-1.422.914,1.168A51.482,51.482,0,0,1,172.477-77.61Zm-1.371,10.664,2.285,1.117V-60.9c0,4.672-.051,4.926-1.27,5.738-1.168.762-1.371.762-2.539,0-1.219-.813-1.27-.965-1.27-6.856a34.565,34.565,0,0,1,.254-6.043A25.658,25.658,0,0,1,171.106-66.946Z" transform="translate(-68.729 -1.174)" fill="#000"/>
    <path id="Path_74" data-name="Path 74" d="M414.063-80.3C404.008-72.938,403.5-72.227,403.5-65.778c.051,5.891,2.895,10.106,9.039,13.3,2.184,1.117,3.3,1.371,6.449,1.422,3.707,0,3.91-.051,7.567-2.438a49.744,49.744,0,0,0,6.5-5.281c2.59-2.742,2.691-2.895,2.691-5.688a13.017,13.017,0,0,0-.965-4.875c-1.016-2.336-4.012-5.18-5.891-5.637-.711-.152-1.27-.457-1.27-.66A35.612,35.612,0,0,1,431.684-80c2.234-2.184,3.961-4.063,3.809-4.266-.2-.152-.762.254-1.27.914l-.914,1.27-2.438-.965c-1.371-.508-3.758-1.523-5.281-2.285L422.8-86.7Zm6.145-2.184c.711.254.813,2.031.813,14.219,0,7.668-.2,13.914-.406,13.914a24.065,24.065,0,0,1-6.551-2.285l-1.27-.863,2.438-2.184,2.488-2.133.152-9.852c.051-5.434.254-10.156.355-10.512C418.481-82.841,418.989-82.942,420.207-82.485Zm5.027,2.285c1.727.863,3.25,1.676,3.352,1.777.3.254-6.094,6.246-6.653,6.3-.254,0-.406-2.184-.406-4.824a22.364,22.364,0,0,1,.254-4.824A31.722,31.722,0,0,1,425.235-80.2ZM413.91-69.688c0,7.465-.152,9.242-.813,10.156-.762,1.117-.863,1.117-1.727.355-2.488-2.234-3.859-8.481-2.895-13.1.406-1.879,3.961-6.449,4.977-6.449C413.707-78.727,413.91-74.665,413.91-69.688Zm14.778.457a10.362,10.362,0,0,1,2.438,10.461c-.457,1.676-.914,2.133-3.148,3.2a14.052,14.052,0,0,1-4.52,1.219h-1.93V-71.77l2.641.254A5.676,5.676,0,0,1,428.688-69.231Z" transform="translate(-194.48 -1.174)" fill="#000"/>
    <path id="Path_75" data-name="Path 75" d="M477.849-86.167a3.921,3.921,0,0,0-1.93,1.523c-.3.711-.406.711-1.27-.051-1.27-1.168-1.625-.711-.965,1.168.66,1.777.457,26.356-.152,27.626-.3.609.2,1.27,2.184,2.691l2.59,1.879,2.438-2.082a16.185,16.185,0,0,1,2.793-2.031,34.11,34.11,0,0,1,3.91,2.285l3.656,2.234,2.539-2.285a35.867,35.867,0,0,1,3.86-3.047l1.32-.762-.1-8.481-.1-8.43-3.758-1.93L491.1-77.737l-2.742,2.082a41.95,41.95,0,0,1-3.859,2.59c-1.117.508-1.168.813-1.27,8.633-.152,8.887-.406,9.5-3.1,8.785l-1.371-.3V-70.323c0-12.188.1-14.524.813-15.489C480.489-87.081,480.185-87.182,477.849-86.167Zm13.356,13.3L494-71.49v17.063l-3.047-1.879-3.047-1.93v-7.973a61.127,61.127,0,0,1,.254-8.024C488.259-74.233,489.63-73.623,491.2-72.862Z" transform="translate(-228.863 -1.098)" fill="#000"/>
    <path id="Path_76" data-name="Path 76" d="M533.751-85.386a11.7,11.7,0,0,0-2.438,1.574c-.863.863-1.269.965-1.727.508a2.558,2.558,0,0,0-1.625-.609c-.66,0-.812.152-.508.406,1.777,1.168,1.981,2.793,2.031,15.793l.1,12.9,3.606,2.184L536.8-50.4l2.793-2.285a42.732,42.732,0,0,1,3.808-2.793c.965-.508,1.016-1.066,1.016-8.531,0-8.836-.457-10.461-3.453-11.985-1.422-.711-1.523-.711-4.012,1.523A17.166,17.166,0,0,1,534-72.233c-.2,0-.3-2.641-.152-5.891.152-5.434.254-5.942,1.371-6.856C536.493-86,535.833-86.2,533.751-85.386Zm5.18,13.508c.813.711.914,1.727.914,9.395,0,4.672-.152,8.531-.356,8.531a16.9,16.9,0,0,1-3.047-1.625L533.751-57.2v-6.754c0-6.094.1-6.856,1.016-7.77A2.872,2.872,0,0,1,538.931-71.878Z" transform="translate(-255.414 -1.574)" fill="#000"/>
    <path id="Path_77" data-name="Path 77" d="M149.841-84.087c-2.844,1.371-4.063,5.332-2.387,7.567.711.914.711.863.457-.711-.508-2.641.762-3.656,4.57-3.656a24.668,24.668,0,0,1,4.215.3c1.016.254.914.406-.965,2.133a9.969,9.969,0,0,0-3.707,6.551c-.356,2.133-.356,2.133-2.641,2.285-2.945.2-4.52,1.93-3.91,4.266l.406,1.473.3-1.523c.609-3.4,5.942-2.793,5.738.711-.1,2.793-.66,4.164-1.828,4.621-1.117.457-1.117.457.152.457a4.889,4.889,0,0,0,2.691-.914c2.742-1.777,3.1-2.793,3.4-9.953.2-5.332.457-6.906,1.27-8.278.965-1.574,4.824-4.621,6.043-4.723,1.27-.152-7.262-1.422-9.6-1.422A11.529,11.529,0,0,0,149.841-84.087Z" transform="translate(-67.422 -2.06)" fill="#000"/>
    <path id="Path_78" data-name="Path 78" d="M271.006-72.141l-3.555,3.859-1.981-.609a30.852,30.852,0,0,1-4.52-2.082l-2.59-1.473-1.473,1.574a20.731,20.731,0,0,1-3.605,2.844l-2.184,1.27v8.278l2.031,1.27a6.9,6.9,0,0,1,2.031,1.574,5.037,5.037,0,0,1-1.066,1.27c-4.316,3.809-6.043,7.871-4.266,10.156.711.914.711.863.254-.508a2.558,2.558,0,0,1,.3-2.742c.711-1.066,1.117-1.219,2.945-1.016a11.33,11.33,0,0,1,4.113,1.574l1.93,1.32,2.336-2.082a21.18,21.18,0,0,1,3.5-2.59c1.016-.457,1.117-.863,1.117-4.926V-59.6l-1.777-1.219c-.965-.66-1.777-1.32-1.777-1.523a24.634,24.634,0,0,1,2.59-3.149c1.828-2.031,2.945-2.895,3.859-2.895h1.219l-.1,9.446-.1,9.446,2.641,2.031,2.691,2.031,1.828-1.727c3.555-3.3,3.2-3.25,7.211-.609l3.606,2.387,1.371-1.117c.762-.609,2.691-1.93,4.266-3,2.285-1.473,2.895-2.082,2.692-2.895a81.838,81.838,0,0,1-.254-8.379v-7.363l-3.555-1.93-3.606-1.981-1.727,1.574a31.8,31.8,0,0,1-4.063,2.844l-2.285,1.371v7.211c0,6.4-.1,7.363-.914,8.074a3.2,3.2,0,0,1-4.316-.051c-.965-1.066-1.117-5.078-.559-13.2l.356-4.672h2.438c3.25,0,3.2-.813-.051-1.219l-2.539-.355v-2.742c0-1.523-.2-2.793-.457-2.793A24.015,24.015,0,0,0,271.006-72.141Zm-7.668,6.957c.508.152-.152,1.168-2.133,3.149-2.641,2.691-2.945,2.844-3.961,2.234-.965-.609-1.066-1.168-1.066-4.824v-4.113l3.25,1.625C261.2-66.2,262.982-65.336,263.337-65.183Zm25.848-1.727,2.285,1.371.152,8.531.1,8.531-2.641-1.574-2.692-1.523-.152-8.379c-.051-4.672.051-8.43.254-8.379A14.081,14.081,0,0,1,289.186-66.91ZM261.763-53.1v3.961l-2.133-1.219a15.375,15.375,0,0,0-4.316-1.574l-2.133-.3,3.148-3.5,3.149-3.453,1.117,1.066C261.611-57.16,261.763-56.55,261.763-53.1Z" transform="translate(-118.507 -6.44)" fill="#000"/>
    <path id="Path_79" data-name="Path 79" d="M223-67.7a26.9,26.9,0,0,1-4.215,3.149l-3.555,2.336v6.856a70.379,70.379,0,0,1-.254,7.77c-.2.711.711,1.523,3.961,3.5l4.215,2.59,1.879-1.777a25.225,25.225,0,0,1,3.809-3l1.98-1.219.051-8.531.051-8.531-3.656-1.981C224.013-68.308,223.607-68.41,223-67.7Zm3.047,14.371.1,8.735-1.879-1.168c-1.066-.66-2.336-1.422-2.793-1.676-.812-.508-.914-1.473-.914-9.09v-8.582l2.691,1.523,2.641,1.473Z" transform="translate(-101.679 -10.323)" fill="#000"/>
    <path id="Path_80" data-name="Path 80" d="M572.309-65.159l-3.3,2.742-.254,7.82-.254,7.871,3.605,2.539,3.656,2.539,3.453-3.606c1.93-1.981,2.742-2.945,1.828-2.234-2.082,1.676-3.5,1.727-5.739.2-1.574-1.066-1.727-1.422-1.879-4.012l-.152-2.895,4.621-3.656a37.365,37.365,0,0,0,4.57-4.063c0-.406-6.3-6.094-6.653-5.992C575.711-67.9,574.137-66.632,572.309-65.159Zm3.707,3.1,2.387,2.59-2.539,2.133-2.539,2.133v-4.926a30.767,30.767,0,0,1,.152-4.723C573.578-64.753,574.7-63.483,576.016-62.061Z" transform="translate(-275.69 -10.425)" fill="#000"/>
    <path id="Path_81" data-name="Path 81" d="M349.655-65.578c-1.371,1.473-1.371,1.473-.355,2.387.914.813,1.016,1.523,1.016,7.719,0,4.723-.2,7.313-.711,8.531l-.762,1.727,2.133,1.676c1.168.863,2.387,1.777,2.691,2.031.355.254,1.066-.254,1.98-1.422l1.371-1.777-1.066-1.168c-.965-1.066-1.066-1.727-1.066-8.582,0-7.059.051-7.465,1.117-8.176,1.371-.965,3-1.066,3.859-.2.406.406.609,3.352.609,9.8v9.192L362-42.371c1.422,1.371,1.676,1.422,2.691.813,1.879-1.219,5.434-4.317,5.18-4.57-.152-.1-.711.2-1.219.66a2.627,2.627,0,0,1-1.93.711c-.863-.152-.914-.914-1.066-9.649l-.1-9.446-1.828-1.574A6.348,6.348,0,0,0,361.285-67a12.514,12.514,0,0,0-3.352,2.031c-2.742,2.031-2.742,2.031-3.2.914C354.175-65.68,352.855-67,351.839-67A4.711,4.711,0,0,0,349.655-65.578Z" transform="translate(-167.449 -10.87)" fill="#000"/>
  </g>
</svg>
