<svg xmlns="http://www.w3.org/2000/svg" width="174.706" height="48.063" viewBox="0 0 174.706 48.063">
  <path id="Metro" d="M40.748,47.346V21.818c0-3.535-2.384-5.784-6.747-5.784-4.286,0-6.835,2.573-6.835,5.86V47.352h-6.83V21.816c0-3.535-2.312-5.784-6.744-5.784-4.289,0-6.841,2.573-6.841,5.86V47.35H0V10.977H6.013l.243,3.371c2.315-2.653,4.7-4.182,9.634-4.182a10.569,10.569,0,0,1,8.972,4.825c2.152-2.732,5.591-4.825,11.273-4.825,6.666,0,11.364,4.663,11.364,11.082v26.1H40.751l0,0ZM83.465,25.661l-5.02,5.062H60.909c.172,5.222,3.626,11.569,11.027,11.569a14.678,14.678,0,0,0,9.952-3.53l-1.463,7.156a17.994,17.994,0,0,1-9.478,2.25c-9.3,0-17.044-7.641-17.044-18.96,0-12.048,7.989-19.038,15.812-19.038A13.5,13.5,0,0,1,83.536,23.9a13.761,13.761,0,0,1-.075,1.757h0Zm-13.5-9.78c-3.952,0-7.9,4.162-8.73,9.39H76.624a5.166,5.166,0,0,0,.094-1.2c0-3.861-2.643-8.19-6.757-8.19Zm39.921.475H99.66V37.566c0,2.8,2.07,4.5,4.775,4.5a7.967,7.967,0,0,0,3.538-.65l-1.148,5.936a7.886,7.886,0,0,1-3.2.487c-5.935,0-10.635-3.7-10.635-10.365V16.357H86.742v-5.38H92.99V4.06L99.66.612V10.977h11.2l-.983,5.38Zm24.173-.072c-5.348,0-11.275,3.522-11.275,12.523V47.346h-6.833V10.977h6.425l.251,5.447c1.717-4.163,6-5.932,11.02-5.932l1.072,5.792h-.66Zm20.3,32.388c-11.348,0-20.35-8.778-20.35-19.86s9-19.854,20.35-19.854,20.35,8.778,20.35,19.854-8.99,19.862-20.35,19.862Zm5.621-35.968a25.624,25.624,0,0,1,2.748,4.976,23.549,23.549,0,0,0,3.225-1.675,15.956,15.956,0,0,0-5.973-3.3Zm7.569,4.863a32.325,32.325,0,0,1-4.074,2.14,28.5,28.5,0,0,1,1.9,7.983h6.361a16.3,16.3,0,0,0-4.182-10.12v0Zm-10.721-5.588a5.556,5.556,0,0,0-1.312-.165v7.827a24.5,24.5,0,0,0,5.164-1.118,31.138,31.138,0,0,0-3.852-6.544Zm4.583,8.5a21.463,21.463,0,0,1-5.9,1.455v5.76h7.565a24.973,24.973,0,0,0-1.667-7.215Zm-8.19-8.659a5.558,5.558,0,0,0-1.323.165,31.535,31.535,0,0,0-3.842,6.544,24.4,24.4,0,0,0,5.163,1.118V11.818Zm12.149,18.117a25.628,25.628,0,0,1-1.9,8,30.047,30.047,0,0,1,4.076,2.131,16.246,16.246,0,0,0,4.182-10.123h-6.361Zm-22.592-13.93a23.59,23.59,0,0,0,3.207,1.676,26.933,26.933,0,0,1,2.754-4.973,16.013,16.013,0,0,0-5.963,3.3Zm12.731,13.934V35.7a22.2,22.2,0,0,1,5.9,1.452,26.286,26.286,0,0,0,1.668-7.215h-7.566Zm-2.293-8a21.669,21.669,0,0,1-5.909-1.452,25.414,25.414,0,0,0-1.662,7.215h7.571V21.935ZM162.666,39.9a23.571,23.571,0,0,1-2.692,5.035,16.038,16.038,0,0,0,5.973-3.3A19.57,19.57,0,0,0,162.666,39.9ZM141.174,17.572A16.257,16.257,0,0,0,136.989,27.7h6.359a28.544,28.544,0,0,1,1.9-7.983,31.874,31.874,0,0,1-4.071-2.14Zm14.331,20.422v7.826a5.394,5.394,0,0,0,1.315-.165,29.694,29.694,0,0,0,3.785-6.6,24.405,24.405,0,0,0-5.1-1.064Zm-2.293-8.058h-7.571a26.64,26.64,0,0,0,1.662,7.215,22.393,22.393,0,0,1,5.909-1.452Zm0,8.058a24.571,24.571,0,0,0-5.1,1.062,30.63,30.63,0,0,0,3.785,6.6,5.477,5.477,0,0,0,1.32.164V38Zm-9.861-8.058H136.99a16.208,16.208,0,0,0,4.187,10.127,29.717,29.717,0,0,1,4.071-2.128,25.459,25.459,0,0,1-1.9-8Zm2.7,9.964a19.369,19.369,0,0,0-3.273,1.73,16.093,16.093,0,0,0,5.965,3.3,23.325,23.325,0,0,1-2.692-5.035Z" transform="translate(0 -0.612)" fill="#000" fill-rule="evenodd"/>
</svg>
