<svg xmlns="http://www.w3.org/2000/svg" width="353.99" height="44.648" viewBox="0 0 353.99 44.648">
  <g id="volksrant" transform="translate(-10.159 87)">
    <path id="Path_82" data-name="Path 82" d="M23.049-86.35c0,.325,1.039.65,2.274.65,1.3,0,2.469.39,2.6.78.13.455.39,5.912.455,12.084.13,6.107.195,11.174.195,11.174s-1.169-.455-2.6-.975a11.73,11.73,0,0,0-10.135.52c-7.731,4.093-7.536,14.358.39,18.451,2.4,1.3,8.056,1.234,10.59-.065,1.754-.91,2.014-.91,2.339,0,.325.78,1.559.91,7.016.715,4.418-.13,6.692-.455,6.887-.975q.195-.78-1.754-.78c-1.494,0-2.014-.325-2.014-1.169V-67.055L39.226-87H31.17C26.168-87,23.049-86.74,23.049-86.35ZM27.337-60.1c1.039.78,1.234,1.754,1.234,6.887,0,5.457-.13,6.042-1.559,7.211-1.884,1.494-3.183,1.559-4.743.13C21.3-46.72,21.1-47.954,21.1-52.7a28.805,28.805,0,0,1,.65-7.081C22.595-61.273,25.453-61.4,27.337-60.1Z" fill="#000"/>
    <path id="Path_83" data-name="Path 83" d="M97-86.35c0,.325.78.65,1.819.65a6.521,6.521,0,0,1,2.6.52c.455.325,4.613,9.03,9.225,19.36,4.678,10.33,8.9,19.685,9.42,20.855,1.819,4.093,2.664,2.859,12.344-19.035,8.771-19.815,9.225-20.725,11.239-21.374,3.7-1.1,2.209-1.624-4.418-1.624-6.5,0-8.511.78-4.223,1.559,1.949.39,2.274.715,2.274,2.274,0,.975-2.144,6.757-4.743,12.8-2.664,6.042-5,11.564-5.262,12.279-.39.975-1.559-1.169-5.327-9.68C115.386-82.712,115-83.882,116.36-84.921a5.294,5.294,0,0,1,2.534-.78c.845,0,1.494-.325,1.494-.65,0-.39-4.353-.65-11.694-.65S97-86.74,97-86.35Z" transform="translate(-30.422)" fill="#000"/>
    <path id="Path_84" data-name="Path 84" d="M197-86.35c0,.325.845.65,1.884.65a3.667,3.667,0,0,1,2.6.91c.52.585.715,6.5.585,20.27L201.873-45.1l-2.144.195c-1.3.13-2.079.52-1.884.975.13.52,2.859.78,9.16.78,10,.065,13.318-.78,7.211-1.754-1.234-.195-1.3-.78-1.494-21.179L212.592-87h-7.8C200.053-87,197-86.74,197-86.35Z" transform="translate(-65.455)" fill="#000"/>
    <path id="Path_85" data-name="Path 85" d="M228.487-86.415c-.195.39.78.715,2.079.845l2.469.195.325,19.36c.195,10.655.065,19.815-.195,20.335a2.571,2.571,0,0,1-2.144.91c-1.039,0-1.559.325-1.364.78.325,1.169,17.476,1.169,17.866,0,.13-.455-.39-.78-1.429-.78-1.689,0-1.819-.26-1.819-3.573,0-.91,0-2.079.065-2.664s1.559.91,3.508,3.378l3.443,4.483,6.107.065a49.052,49.052,0,0,0,7.016-.26c1.234-.39.91-1.429-.455-1.429-.78,0-3.053-2.339-6.237-6.432a84.239,84.239,0,0,1-5.067-7.016c-.13-.845,3.183-2.209,6.692-2.6,2.144-.26,3.248-.65,3.248-1.3,0-.715-1.429-.845-7.6-.715-4.483.13-7.666.455-7.666.845,0,.325.91.78,1.949.975,1.1.195,1.949.65,1.949,1.039,0,.845-6.822,6.432-6.887,5.652V-70.953L244.4-87h-7.731C232.385-87,228.746-86.74,228.487-86.415Z" transform="translate(-76.477)" fill="#000"/>
    <path id="Path_86" data-name="Path 86" d="M322-86.35c0,.325.845.65,1.819.65,3.378,0,3.378.13,3.378,20.2,0,10.265-.195,19.1-.39,19.685-.26.65-1.169,1.039-2.339,1.039-1.234,0-1.819.26-1.624.78.195.65,2.6.845,9.225.845s9.031-.195,9.29-.845c.13-.455-.39-.78-1.429-.78-2.079,0-2.469-.91-2.209-4.613l.195-2.794,3.443,4.613,3.443,4.613,6.562-.065c4.223-.065,6.692-.39,6.822-.845.13-.39-.325-.91-.975-1.039-1.689-.455-11.369-12.669-10.979-13.773.39-.91,5.132-2.339,7.861-2.339,1.039,0,1.689-.39,1.689-.975,0-.78-1.234-.975-7.471-.975s-7.471.195-7.471.975q0,.975,1.949.975c2.924,0,2.4,1.429-1.624,4.483L337.592-53.8V-87h-7.8C325.053-87,322-86.74,322-86.35Z" transform="translate(-109.245)" fill="#000"/>
    <path id="Path_87" data-name="Path 87" d="M530.424-57.873c-6.3,4.028-7.731,5.652-4.808,5.652,1.494,0,1.559.13,1.819,7.536.26,7.276.39,7.666,2.014,9.1,3.378,2.924,10.525,2.6,13.448-.585,1.364-1.429,1.819-6.3.65-6.3-.325,0-.65.845-.65,1.819,0,2.209-1.04,3.378-2.989,3.378s-2.209-1.039-2.209-8.511v-6.432h3.248c1.819,0,3.248-.26,3.248-.585,0-.78-1.234-1.1-4.028-1.039l-2.469.065v-4.093c0-2.274-.195-4.093-.455-4.028A57.58,57.58,0,0,0,530.424-57.873Z" transform="translate(-180.068 -8.792)" fill="#000"/>
    <path id="Path_88" data-name="Path 88" d="M70.727-50.274c-2.6.65-5.717,2.339-6.757,3.573-2.794,3.378-2.794,9.485,0,12.539,5.262,5.587,16.437,6.172,22.089,1.039,1.364-1.234,2.339-2.534,2.144-2.859-.195-.39-1.364.26-2.6,1.3-3.053,2.729-6.692,3.7-9.94,2.729-2.664-.78-2.924-1.169-3.7-5.457l-.39-2.4h8.511c9.55,0,9.615-.065,7.6-4.873-1.429-3.443-5.2-5.522-10.525-5.847A26.545,26.545,0,0,0,70.727-50.274Zm7.341,2.144a6.431,6.431,0,0,1,.78,3.573v2.794H71.571l.325-2.6A7.974,7.974,0,0,1,73-47.935C73.975-49.1,76.964-49.234,78.068-48.13Z" transform="translate(-18.117 -12.753)" fill="#000"/>
    <path id="Path_89" data-name="Path 89" d="M160.807-50c-3.7,1.169-6.952,4.288-7.536,7.211-1.494,7.861,4.093,12.864,14.293,12.864,10.005.065,16.307-6.562,13.448-14.1C178.868-49.677,169.058-52.535,160.807-50Zm9.615,2.144c.52.65.78,3.248.78,7.276,0,7.146-.845,9.1-3.9,9.1s-3.9-1.949-3.9-9.1c0-6.3.52-7.991,2.6-8.576A4.507,4.507,0,0,1,170.422-47.857Z" transform="translate(-50.052 -12.636)" fill="#000"/>
    <path id="Path_90" data-name="Path 90" d="M293.757-50.093c-3.9.91-6.107,3.183-6.107,6.3,0,2.924,1.819,4.938,6.5,7.276,3.248,1.624,3.963,2.4,3.443,3.7-.91,2.4-8.251-.26-9.031-3.378-.715-2.794-1.559-1.754-1.559,1.949,0,3.248.65,4.483,1.559,2.989.26-.325,1.754-.195,3.443.39,7.6,2.339,15.982.585,17.736-3.638,1.559-3.833-.39-6.887-5.717-8.836-5.717-2.144-6.822-4.873-1.949-4.873a5.032,5.032,0,0,1,4.093,1.624,5.252,5.252,0,0,1,1.624,2.274.7.7,0,0,0,.65.65c.39,0,.65-1.494.65-3.248,0-2.989-.715-4.093-1.559-2.664-.26.39-1.3.39-2.534.065C301.293-50.483,296.485-50.742,293.757-50.093Z" transform="translate(-96.984 -12.804)" fill="#000"/>
    <path id="Path_91" data-name="Path 91" d="M399.024-50.3a9.393,9.393,0,0,0-3.053,2.6l-1.754,2.079v-4.548l-6.627.195c-8.251.26-7.666.195-7.666.91,0,.39.975.715,2.144.845l2.079.195v7.8c0,7.276-.065,7.8-1.3,7.991-6.107.975-2.729,1.884,6.952,1.819,6.237-.065,8.576-.26,8.771-.91.195-.455-.325-.78-1.3-.78-2.534,0-2.924-1.1-2.469-6.952.26-3.833.715-5.717,1.559-6.5,1.1-1.1,1.1-1.039.715.91-.325,1.754-.065,2.4,1.559,4.093,2.859,2.794,6.952,2.339,8.511-1.1C409.679-47.249,404.741-52.641,399.024-50.3Z" transform="translate(-129.488 -12.66)" fill="#000"/>
    <path id="Path_92" data-name="Path 92" d="M433.662-49.965c-2.079.585-3.443.715-3.833.325-1.234-1.234-1.689-.585-1.689,2.6,0,2.534.26,3.248,1.039,3.248.52,0,.78-.26.585-.65-.195-.325.325-1.364,1.234-2.274,1.234-1.234,2.274-1.624,4.483-1.624,3.248,0,4.353.845,4.353,3.378,0,1.689-.13,1.819-2.924,1.819-7.8,0-12.084,2.4-12.214,6.822-.065,1.949.325,2.794,2.014,4.288,1.754,1.624,2.664,1.884,5.652,1.884a18.408,18.408,0,0,0,5.847-.91c1.819-.78,2.209-.78,2.534-.065.455,1.234,12.734,1.169,12.734-.13,0-.455-.585-.845-1.234-.845-1.689,0-2.014-1.234-2.014-7.536,0-3.573-.325-6.172-.974-7.341C447.435-50.549,440.678-51.849,433.662-49.965Zm6.172,12.6c0,3.313-.195,3.963-1.3,4.288-2.079.65-3.248-.78-3.248-3.833s.845-4.288,3.054-4.288C439.7-41.194,439.834-40.934,439.834-37.361Z" transform="translate(-145.22 -12.673)" fill="#000"/>
    <path id="Path_93" data-name="Path 93" d="M471-48.929c0,.52.78.845,1.884.845,2.4,0,2.664.715,2.664,8.121s-.26,8.121-2.729,8.121c-1.234,0-1.819.26-1.689.78.39,1.169,16.762,1.3,16.762.13,0-.39-.585-.91-1.3-1.1-1.169-.325-1.3-.91-1.3-6.432,0-7.081.65-8.576,3.573-8.186l1.949.195.195,7.276c.13,6.432.065,7.341-.91,7.341-.52,0-.91.39-.715.78.325,1.169,16.047,1.169,16.047.065,0-.39-.78-.845-1.754-.975l-1.819-.195-.325-7.341c-.325-7.081-.39-7.471-2.144-8.966-2.4-2.014-8.056-2.209-11.629-.26-1.429.78-2.6,1.039-2.794.65s-.195-.65.13-.65c.26,0,.065-.26-.455-.585s-3.833-.52-7.276-.52C472.624-49.773,471-49.579,471-48.929Z" transform="translate(-161.444 -12.929)" fill="#000"/>
  </g>
</svg>
